<?xml version="1.0" encoding="UTF-8"?>
<svg xmlns="http://www.w3.org/2000/svg" xmlns:xlink="http://www.w3.org/1999/xlink" width="35pt" height="35pt" viewBox="0 0 35 35" version="1.1">
<g id="surface1">
<path style=" stroke:none;fill-rule:nonzero;fill:rgb(95.686275%,26.27451%,21.176471%);fill-opacity:1;" d="M 30.558594 0 L 3.953125 0 C 1.773438 0 0 1.773438 0 3.953125 L 0 30.558594 C 0 32.734375 1.773438 34.507812 3.953125 34.507812 L 30.558594 34.507812 C 32.734375 34.507812 34.507812 32.734375 34.507812 30.558594 L 34.507812 3.953125 C 34.507812 1.773438 32.734375 0 30.558594 0 Z M 30.558594 0 "/>
<path style=" stroke:none;fill-rule:nonzero;fill:rgb(98.039216%,98.039216%,98.039216%);fill-opacity:1;" d="M 23.609375 21.578125 C 24.171875 22.136719 24.171875 23.046875 23.609375 23.609375 C 23.324219 23.886719 22.964844 24.03125 22.597656 24.03125 C 22.222656 24.03125 21.851562 23.886719 21.578125 23.609375 L 17.253906 19.289062 L 12.933594 23.609375 C 12.652344 23.886719 12.285156 24.03125 11.914062 24.03125 C 11.546875 24.03125 11.179688 23.886719 10.898438 23.609375 C 10.339844 23.046875 10.339844 22.136719 10.898438 21.578125 L 15.21875 17.253906 L 10.898438 12.933594 C 10.339844 12.371094 10.339844 11.460938 10.898438 10.898438 C 11.460938 10.339844 12.371094 10.339844 12.933594 10.898438 L 17.253906 15.21875 L 21.578125 10.898438 C 22.136719 10.339844 23.046875 10.339844 23.609375 10.898438 C 24.171875 11.460938 24.171875 12.371094 23.609375 12.933594 L 19.289062 17.253906 Z M 23.609375 21.578125 "/>
</g>
</svg>
